<svg xmlns="http://www.w3.org/2000/svg" width="900" height="684" viewBox="0 0 900 684" role="img" aria-label="threshold와 NMS 반경 격자에서의 검증셋 헝가리안 F1@50px 히트맵">
  <style>
    .t{font-family:'Noto Sans CJK KR','NanumGothic','Noto Sans CJK JP',sans-serif}
    .m{font-family:'D2Coding','DejaVu Sans Mono',monospace}
    .ti{font-size:13px;font-weight:700;fill:#17202e}
    .su{font-size:10.5px;fill:#5c6675}
    .ph{font-size:12px;font-weight:700}
    .ax{font-size:10px;fill:#5c6675}
    .axt{font-size:9.5px;fill:#8b95a3}
    .cv{font-size:9.5px}
    .lb{font-size:10px;fill:#17202e}
    .vl{font-size:9.5px;fill:#5c6675}
    .dl{font-size:10px;font-weight:700}
    .note{font-size:10px;fill:#5c6675}
  </style>
  <rect width="900" height="684" fill="#ffffff"/>

  <text x="24" y="28" class="t ti">2-1 후처리 격자 탐색: 검증셋 헝가리안 F1@50 px</text>
  <text x="24" y="46" class="t su">모델 <tspan class="m" font-size="10.5">monai_mini</tspan> 고정 · 조합별 25개 설정 · ★ = 선택된 설정 · 점선 = 기존 기본값 (0.5, 20) · 도구 4개 이상 프레임 제외</text>
  <text x="40" y="84" class="t ph" fill="#c4763a">erop / <tspan class="m" font-size="12">gradient-seg</tspan></text>
  <text x="230" y="92" class="t axt" text-anchor="middle">NMS 반경 (px)</text>
  <text x="118" y="110" class="t ax" text-anchor="middle">5</text>
  <text x="174" y="110" class="t ax" text-anchor="middle">10</text>
  <text x="230" y="110" class="t ax" text-anchor="middle">15</text>
  <text x="286" y="110" class="t ax" text-anchor="middle">20</text>
  <text x="342" y="110" class="t ax" text-anchor="middle">30</text>
  <text x="82" y="136" class="t ax" text-anchor="end">0.2</text>
  <rect x="90" y="114" width="56" height="36" fill="#e4c9b4" stroke="#ffffff"/>
  <text x="118" y="136" class="t cv" fill="#17202e" text-anchor="middle">0.804</text>
  <rect x="146" y="114" width="56" height="36" fill="#dfba9f" stroke="#ffffff"/>
  <text x="174" y="136" class="t cv" fill="#17202e" text-anchor="middle">0.808</text>
  <rect x="202" y="114" width="56" height="36" fill="#d9ad8b" stroke="#ffffff"/>
  <text x="230" y="136" class="t cv" fill="#17202e" text-anchor="middle">0.812</text>
  <rect x="258" y="114" width="56" height="36" fill="#d5a27a" stroke="#ffffff"/>
  <text x="286" y="136" class="t cv" fill="#17202e" text-anchor="middle">0.816</text>
  <rect x="314" y="114" width="56" height="36" fill="#ce9161" stroke="#ffffff"/>
  <text x="342" y="136" class="t cv" fill="#ffffff" text-anchor="middle">0.822</text>
  <text x="82" y="172" class="t ax" text-anchor="end">0.3</text>
  <rect x="90" y="150" width="56" height="36" fill="#d9ad8b" stroke="#ffffff"/>
  <text x="118" y="172" class="t cv" fill="#17202e" text-anchor="middle">0.812</text>
  <rect x="146" y="150" width="56" height="36" fill="#d5a27b" stroke="#ffffff"/>
  <text x="174" y="172" class="t cv" fill="#17202e" text-anchor="middle">0.816</text>
  <rect x="202" y="150" width="56" height="36" fill="#d2996d" stroke="#ffffff"/>
  <text x="230" y="172" class="t cv" fill="#17202e" text-anchor="middle">0.819</text>
  <rect x="258" y="150" width="56" height="36" fill="#ce9061" stroke="#ffffff"/>
  <text x="286" y="172" class="t cv" fill="#ffffff" text-anchor="middle">0.822</text>
  <rect x="314" y="150" width="56" height="36" fill="#ca844f" stroke="#ffffff"/>
  <text x="342" y="172" class="t cv" fill="#ffffff" text-anchor="middle">0.826</text>
  <text x="82" y="208" class="t ax" text-anchor="end">0.4</text>
  <rect x="90" y="186" width="56" height="36" fill="#d1986d" stroke="#ffffff"/>
  <text x="118" y="208" class="t cv" fill="#17202e" text-anchor="middle">0.819</text>
  <rect x="146" y="186" width="56" height="36" fill="#ce8f5e" stroke="#ffffff"/>
  <text x="174" y="208" class="t cv" fill="#ffffff" text-anchor="middle">0.822</text>
  <rect x="202" y="186" width="56" height="36" fill="#cb8754" stroke="#ffffff"/>
  <text x="230" y="208" class="t cv" fill="#ffffff" text-anchor="middle">0.825</text>
  <rect x="258" y="186" width="56" height="36" fill="#c8814a" stroke="#ffffff"/>
  <text x="286" y="208" class="t cv" fill="#ffffff" text-anchor="middle">0.827</text>
  <rect x="314" y="186" width="56" height="36" fill="#c4763a" stroke="#ffffff"/>
  <text x="342" y="208" class="t cv" fill="#ffffff" text-anchor="middle">0.830</text>
  <rect x="315" y="187" width="54" height="34" fill="none" stroke="#17202e" stroke-width="2.4"/>
  <text x="364" y="197" class="t cv" fill="#ffffff" text-anchor="end">★</text>
  <text x="82" y="244" class="t ax" text-anchor="end">0.5</text>
  <rect x="90" y="222" width="56" height="36" fill="#eee1d8" stroke="#ffffff"/>
  <text x="118" y="244" class="t cv" fill="#17202e" text-anchor="middle">0.796</text>
  <rect x="146" y="222" width="56" height="36" fill="#e9d5c6" stroke="#ffffff"/>
  <text x="174" y="244" class="t cv" fill="#17202e" text-anchor="middle">0.800</text>
  <rect x="202" y="222" width="56" height="36" fill="#e6cfbc" stroke="#ffffff"/>
  <text x="230" y="244" class="t cv" fill="#17202e" text-anchor="middle">0.802</text>
  <rect x="258" y="222" width="56" height="36" fill="#e4c8b3" stroke="#ffffff"/>
  <text x="286" y="244" class="t cv" fill="#17202e" text-anchor="middle">0.804</text>
  <rect x="259.5" y="223.5" width="53" height="33" fill="none" stroke="#5c6675" stroke-width="1.6" stroke-dasharray="3 2"/>
  <rect x="314" y="222" width="56" height="36" fill="#e0bfa5" stroke="#ffffff"/>
  <text x="342" y="244" class="t cv" fill="#17202e" text-anchor="middle">0.807</text>
  <text x="82" y="280" class="t ax" text-anchor="end">0.6</text>
  <rect x="90" y="258" width="56" height="36" fill="#f7f9fb" stroke="#ffffff"/>
  <text x="118" y="280" class="t cv" fill="#17202e" text-anchor="middle">0.788</text>
  <rect x="146" y="258" width="56" height="36" fill="#f3efed" stroke="#ffffff"/>
  <text x="174" y="280" class="t cv" fill="#17202e" text-anchor="middle">0.791</text>
  <rect x="202" y="258" width="56" height="36" fill="#f1eae4" stroke="#ffffff"/>
  <text x="230" y="280" class="t cv" fill="#17202e" text-anchor="middle">0.793</text>
  <rect x="258" y="258" width="56" height="36" fill="#efe5dd" stroke="#ffffff"/>
  <text x="286" y="280" class="t cv" fill="#17202e" text-anchor="middle">0.795</text>
  <rect x="314" y="258" width="56" height="36" fill="#ebdbce" stroke="#ffffff"/>
  <text x="342" y="280" class="t cv" fill="#17202e" text-anchor="middle">0.798</text>
  <text x="48" y="204" class="t axt" text-anchor="middle" transform="rotate(-90 48 204)">threshold</text>
  <text x="90" y="310" class="t axt">F1 범위 0.788〜0.830  ·  기준값 대비 +0.0265</text>
  <text x="490" y="84" class="t ph" fill="#2f6f9f">erop / <tspan class="m" font-size="12">gaussian-tip</tspan></text>
  <text x="680" y="92" class="t axt" text-anchor="middle">NMS 반경 (px)</text>
  <text x="568" y="110" class="t ax" text-anchor="middle">5</text>
  <text x="624" y="110" class="t ax" text-anchor="middle">10</text>
  <text x="680" y="110" class="t ax" text-anchor="middle">15</text>
  <text x="736" y="110" class="t ax" text-anchor="middle">20</text>
  <text x="792" y="110" class="t ax" text-anchor="middle">30</text>
  <text x="532" y="136" class="t ax" text-anchor="end">0.2</text>
  <rect x="540" y="114" width="56" height="36" fill="#c6d7e5" stroke="#ffffff"/>
  <text x="568" y="136" class="t cv" fill="#17202e" text-anchor="middle">0.877</text>
  <rect x="596" y="114" width="56" height="36" fill="#c5d7e4" stroke="#ffffff"/>
  <text x="624" y="136" class="t cv" fill="#17202e" text-anchor="middle">0.877</text>
  <rect x="652" y="114" width="56" height="36" fill="#c4d6e3" stroke="#ffffff"/>
  <text x="680" y="136" class="t cv" fill="#17202e" text-anchor="middle">0.878</text>
  <rect x="708" y="114" width="56" height="36" fill="#c3d5e3" stroke="#ffffff"/>
  <text x="736" y="136" class="t cv" fill="#17202e" text-anchor="middle">0.878</text>
  <rect x="764" y="114" width="56" height="36" fill="#c2d5e3" stroke="#ffffff"/>
  <text x="792" y="136" class="t cv" fill="#17202e" text-anchor="middle">0.878</text>
  <text x="532" y="172" class="t ax" text-anchor="end">0.3</text>
  <rect x="540" y="150" width="56" height="36" fill="#3e79a6" stroke="#ffffff"/>
  <text x="568" y="172" class="t cv" fill="#ffffff" text-anchor="middle">0.886</text>
  <rect x="596" y="150" width="56" height="36" fill="#3e79a6" stroke="#ffffff"/>
  <text x="624" y="172" class="t cv" fill="#ffffff" text-anchor="middle">0.886</text>
  <rect x="652" y="150" width="56" height="36" fill="#3e79a6" stroke="#ffffff"/>
  <text x="680" y="172" class="t cv" fill="#ffffff" text-anchor="middle">0.886</text>
  <rect x="708" y="150" width="56" height="36" fill="#3e79a6" stroke="#ffffff"/>
  <text x="736" y="172" class="t cv" fill="#ffffff" text-anchor="middle">0.886</text>
  <rect x="764" y="150" width="56" height="36" fill="#3e79a6" stroke="#ffffff"/>
  <text x="792" y="172" class="t cv" fill="#ffffff" text-anchor="middle">0.886</text>
  <text x="532" y="208" class="t ax" text-anchor="end">0.4</text>
  <rect x="540" y="186" width="56" height="36" fill="#2f6f9f" stroke="#ffffff"/>
  <text x="568" y="208" class="t cv" fill="#ffffff" text-anchor="middle">0.886</text>
  <rect x="596" y="186" width="56" height="36" fill="#2f6f9f" stroke="#ffffff"/>
  <text x="624" y="208" class="t cv" fill="#ffffff" text-anchor="middle">0.886</text>
  <rect x="652" y="186" width="56" height="36" fill="#2f6f9f" stroke="#ffffff"/>
  <text x="680" y="208" class="t cv" fill="#ffffff" text-anchor="middle">0.886</text>
  <rect x="708" y="186" width="56" height="36" fill="#2f6f9f" stroke="#ffffff"/>
  <text x="736" y="208" class="t cv" fill="#ffffff" text-anchor="middle">0.886</text>
  <rect x="764" y="186" width="56" height="36" fill="#2f6f9f" stroke="#ffffff"/>
  <text x="792" y="208" class="t cv" fill="#ffffff" text-anchor="middle">0.886</text>
  <rect x="765" y="187" width="54" height="34" fill="none" stroke="#17202e" stroke-width="2.4"/>
  <text x="814" y="197" class="t cv" fill="#ffffff" text-anchor="end">★</text>
  <text x="532" y="244" class="t ax" text-anchor="end">0.5</text>
  <rect x="540" y="222" width="56" height="36" fill="#5a8cb3" stroke="#ffffff"/>
  <text x="568" y="244" class="t cv" fill="#ffffff" text-anchor="middle">0.884</text>
  <rect x="596" y="222" width="56" height="36" fill="#598cb2" stroke="#ffffff"/>
  <text x="624" y="244" class="t cv" fill="#ffffff" text-anchor="middle">0.884</text>
  <rect x="652" y="222" width="56" height="36" fill="#598cb2" stroke="#ffffff"/>
  <text x="680" y="244" class="t cv" fill="#ffffff" text-anchor="middle">0.884</text>
  <rect x="708" y="222" width="56" height="36" fill="#598cb2" stroke="#ffffff"/>
  <text x="736" y="244" class="t cv" fill="#ffffff" text-anchor="middle">0.884</text>
  <rect x="709.5" y="223.5" width="53" height="33" fill="none" stroke="#5c6675" stroke-width="1.6" stroke-dasharray="3 2"/>
  <rect x="764" y="222" width="56" height="36" fill="#588bb2" stroke="#ffffff"/>
  <text x="792" y="244" class="t cv" fill="#ffffff" text-anchor="middle">0.884</text>
  <text x="532" y="280" class="t ax" text-anchor="end">0.6</text>
  <rect x="540" y="258" width="56" height="36" fill="#f7f9fb" stroke="#ffffff"/>
  <text x="568" y="280" class="t cv" fill="#17202e" text-anchor="middle">0.874</text>
  <rect x="596" y="258" width="56" height="36" fill="#f7f9fb" stroke="#ffffff"/>
  <text x="624" y="280" class="t cv" fill="#17202e" text-anchor="middle">0.874</text>
  <rect x="652" y="258" width="56" height="36" fill="#f7f9fb" stroke="#ffffff"/>
  <text x="680" y="280" class="t cv" fill="#17202e" text-anchor="middle">0.874</text>
  <rect x="708" y="258" width="56" height="36" fill="#f7f9fb" stroke="#ffffff"/>
  <text x="736" y="280" class="t cv" fill="#17202e" text-anchor="middle">0.874</text>
  <rect x="764" y="258" width="56" height="36" fill="#f6f8fa" stroke="#ffffff"/>
  <text x="792" y="280" class="t cv" fill="#17202e" text-anchor="middle">0.874</text>
  <text x="498" y="204" class="t axt" text-anchor="middle" transform="rotate(-90 498 204)">threshold</text>
  <text x="540" y="310" class="t axt">F1 범위 0.874〜0.886  ·  기준값 대비 +0.0026</text>
  <text x="40" y="360" class="t ph" fill="#c4763a">cholec80 / <tspan class="m" font-size="12">gradient-seg</tspan></text>
  <text x="230" y="368" class="t axt" text-anchor="middle">NMS 반경 (px)</text>
  <text x="118" y="386" class="t ax" text-anchor="middle">5</text>
  <text x="174" y="386" class="t ax" text-anchor="middle">10</text>
  <text x="230" y="386" class="t ax" text-anchor="middle">15</text>
  <text x="286" y="386" class="t ax" text-anchor="middle">20</text>
  <text x="342" y="386" class="t ax" text-anchor="middle">30</text>
  <text x="82" y="412" class="t ax" text-anchor="end">0.2</text>
  <rect x="90" y="390" width="56" height="36" fill="#ede0d6" stroke="#ffffff"/>
  <text x="118" y="412" class="t cv" fill="#17202e" text-anchor="middle">0.760</text>
  <rect x="146" y="390" width="56" height="36" fill="#ebd9cd" stroke="#ffffff"/>
  <text x="174" y="412" class="t cv" fill="#17202e" text-anchor="middle">0.762</text>
  <rect x="202" y="390" width="56" height="36" fill="#e7cfbd" stroke="#ffffff"/>
  <text x="230" y="412" class="t cv" fill="#17202e" text-anchor="middle">0.764</text>
  <rect x="258" y="390" width="56" height="36" fill="#e3c6b0" stroke="#ffffff"/>
  <text x="286" y="412" class="t cv" fill="#17202e" text-anchor="middle">0.766</text>
  <rect x="314" y="390" width="56" height="36" fill="#dbb292" stroke="#ffffff"/>
  <text x="342" y="412" class="t cv" fill="#17202e" text-anchor="middle">0.770</text>
  <text x="82" y="448" class="t ax" text-anchor="end">0.3</text>
  <rect x="90" y="426" width="56" height="36" fill="#e4c7b2" stroke="#ffffff"/>
  <text x="118" y="448" class="t cv" fill="#17202e" text-anchor="middle">0.766</text>
  <rect x="146" y="426" width="56" height="36" fill="#e1c0a6" stroke="#ffffff"/>
  <text x="174" y="448" class="t cv" fill="#17202e" text-anchor="middle">0.767</text>
  <rect x="202" y="426" width="56" height="36" fill="#ddb698" stroke="#ffffff"/>
  <text x="230" y="448" class="t cv" fill="#17202e" text-anchor="middle">0.769</text>
  <rect x="258" y="426" width="56" height="36" fill="#d9ac89" stroke="#ffffff"/>
  <text x="286" y="448" class="t cv" fill="#17202e" text-anchor="middle">0.771</text>
  <rect x="314" y="426" width="56" height="36" fill="#d29a6f" stroke="#ffffff"/>
  <text x="342" y="448" class="t cv" fill="#17202e" text-anchor="middle">0.775</text>
  <text x="82" y="484" class="t ax" text-anchor="end">0.4</text>
  <rect x="90" y="462" width="56" height="36" fill="#d1976b" stroke="#ffffff"/>
  <text x="118" y="484" class="t cv" fill="#17202e" text-anchor="middle">0.775</text>
  <rect x="146" y="462" width="56" height="36" fill="#cf9264" stroke="#ffffff"/>
  <text x="174" y="484" class="t cv" fill="#17202e" text-anchor="middle">0.776</text>
  <rect x="202" y="462" width="56" height="36" fill="#cc8c5a" stroke="#ffffff"/>
  <text x="230" y="484" class="t cv" fill="#ffffff" text-anchor="middle">0.778</text>
  <rect x="258" y="462" width="56" height="36" fill="#ca8652" stroke="#ffffff"/>
  <text x="286" y="484" class="t cv" fill="#ffffff" text-anchor="middle">0.779</text>
  <rect x="314" y="462" width="56" height="36" fill="#c4763a" stroke="#ffffff"/>
  <text x="342" y="484" class="t cv" fill="#ffffff" text-anchor="middle">0.782</text>
  <rect x="315" y="463" width="54" height="34" fill="none" stroke="#17202e" stroke-width="2.4"/>
  <text x="364" y="473" class="t cv" fill="#ffffff" text-anchor="end">★</text>
  <text x="82" y="520" class="t ax" text-anchor="end">0.5</text>
  <rect x="90" y="498" width="56" height="36" fill="#efe5de" stroke="#ffffff"/>
  <text x="118" y="520" class="t cv" fill="#17202e" text-anchor="middle">0.759</text>
  <rect x="146" y="498" width="56" height="36" fill="#ebd9cc" stroke="#ffffff"/>
  <text x="174" y="520" class="t cv" fill="#17202e" text-anchor="middle">0.762</text>
  <rect x="202" y="498" width="56" height="36" fill="#e8d2c1" stroke="#ffffff"/>
  <text x="230" y="520" class="t cv" fill="#17202e" text-anchor="middle">0.763</text>
  <rect x="258" y="498" width="56" height="36" fill="#e5cab6" stroke="#ffffff"/>
  <text x="286" y="520" class="t cv" fill="#17202e" text-anchor="middle">0.765</text>
  <rect x="259.5" y="499.5" width="53" height="33" fill="none" stroke="#5c6675" stroke-width="1.6" stroke-dasharray="3 2"/>
  <rect x="314" y="498" width="56" height="36" fill="#deba9e" stroke="#ffffff"/>
  <text x="342" y="520" class="t cv" fill="#17202e" text-anchor="middle">0.768</text>
  <text x="82" y="556" class="t ax" text-anchor="end">0.6</text>
  <rect x="90" y="534" width="56" height="36" fill="#f7f9fb" stroke="#ffffff"/>
  <text x="118" y="556" class="t cv" fill="#17202e" text-anchor="middle">0.755</text>
  <rect x="146" y="534" width="56" height="36" fill="#f5f3f2" stroke="#ffffff"/>
  <text x="174" y="556" class="t cv" fill="#17202e" text-anchor="middle">0.757</text>
  <rect x="202" y="534" width="56" height="36" fill="#f2ede9" stroke="#ffffff"/>
  <text x="230" y="556" class="t cv" fill="#17202e" text-anchor="middle">0.758</text>
  <rect x="258" y="534" width="56" height="36" fill="#f0e7e1" stroke="#ffffff"/>
  <text x="286" y="556" class="t cv" fill="#17202e" text-anchor="middle">0.759</text>
  <rect x="314" y="534" width="56" height="36" fill="#ecdcd0" stroke="#ffffff"/>
  <text x="342" y="556" class="t cv" fill="#17202e" text-anchor="middle">0.761</text>
  <text x="48" y="480" class="t axt" text-anchor="middle" transform="rotate(-90 48 480)">threshold</text>
  <text x="90" y="586" class="t axt">F1 범위 0.755〜0.782  ·  기준값 대비 +0.0172</text>
  <text x="490" y="360" class="t ph" fill="#2f6f9f">cholec80 / <tspan class="m" font-size="12">gaussian-tip</tspan></text>
  <text x="680" y="368" class="t axt" text-anchor="middle">NMS 반경 (px)</text>
  <text x="568" y="386" class="t ax" text-anchor="middle">5</text>
  <text x="624" y="386" class="t ax" text-anchor="middle">10</text>
  <text x="680" y="386" class="t ax" text-anchor="middle">15</text>
  <text x="736" y="386" class="t ax" text-anchor="middle">20</text>
  <text x="792" y="386" class="t ax" text-anchor="middle">30</text>
  <text x="532" y="412" class="t ax" text-anchor="end">0.2</text>
  <rect x="540" y="390" width="56" height="36" fill="#6695b8" stroke="#ffffff"/>
  <text x="568" y="412" class="t cv" fill="#ffffff" text-anchor="middle">0.843</text>
  <rect x="596" y="390" width="56" height="36" fill="#6695b8" stroke="#ffffff"/>
  <text x="624" y="412" class="t cv" fill="#ffffff" text-anchor="middle">0.843</text>
  <rect x="652" y="390" width="56" height="36" fill="#6595b8" stroke="#ffffff"/>
  <text x="680" y="412" class="t cv" fill="#ffffff" text-anchor="middle">0.843</text>
  <rect x="708" y="390" width="56" height="36" fill="#6594b8" stroke="#ffffff"/>
  <text x="736" y="412" class="t cv" fill="#ffffff" text-anchor="middle">0.843</text>
  <rect x="764" y="390" width="56" height="36" fill="#6494b8" stroke="#ffffff"/>
  <text x="792" y="412" class="t cv" fill="#ffffff" text-anchor="middle">0.844</text>
  <text x="532" y="448" class="t ax" text-anchor="end">0.3</text>
  <rect x="540" y="426" width="56" height="36" fill="#30709f" stroke="#ffffff"/>
  <text x="568" y="448" class="t cv" fill="#ffffff" text-anchor="middle">0.850</text>
  <rect x="596" y="426" width="56" height="36" fill="#306f9f" stroke="#ffffff"/>
  <text x="624" y="448" class="t cv" fill="#ffffff" text-anchor="middle">0.850</text>
  <rect x="652" y="426" width="56" height="36" fill="#306f9f" stroke="#ffffff"/>
  <text x="680" y="448" class="t cv" fill="#ffffff" text-anchor="middle">0.850</text>
  <rect x="708" y="426" width="56" height="36" fill="#306f9f" stroke="#ffffff"/>
  <text x="736" y="448" class="t cv" fill="#ffffff" text-anchor="middle">0.850</text>
  <rect x="764" y="426" width="56" height="36" fill="#306f9f" stroke="#ffffff"/>
  <text x="792" y="448" class="t cv" fill="#ffffff" text-anchor="middle">0.850</text>
  <text x="532" y="484" class="t ax" text-anchor="end">0.4</text>
  <rect x="540" y="462" width="56" height="36" fill="#306f9f" stroke="#ffffff"/>
  <text x="568" y="484" class="t cv" fill="#ffffff" text-anchor="middle">0.850</text>
  <rect x="596" y="462" width="56" height="36" fill="#2f6f9f" stroke="#ffffff"/>
  <text x="624" y="484" class="t cv" fill="#ffffff" text-anchor="middle">0.850</text>
  <rect x="652" y="462" width="56" height="36" fill="#2f6f9f" stroke="#ffffff"/>
  <text x="680" y="484" class="t cv" fill="#ffffff" text-anchor="middle">0.850</text>
  <rect x="708" y="462" width="56" height="36" fill="#2f6f9f" stroke="#ffffff"/>
  <text x="736" y="484" class="t cv" fill="#ffffff" text-anchor="middle">0.850</text>
  <rect x="764" y="462" width="56" height="36" fill="#2f6f9f" stroke="#ffffff"/>
  <text x="792" y="484" class="t cv" fill="#ffffff" text-anchor="middle">0.850</text>
  <rect x="765" y="463" width="54" height="34" fill="none" stroke="#17202e" stroke-width="2.4"/>
  <text x="814" y="473" class="t cv" fill="#ffffff" text-anchor="end">★</text>
  <text x="532" y="520" class="t ax" text-anchor="end">0.5</text>
  <rect x="540" y="498" width="56" height="36" fill="#6b99bb" stroke="#ffffff"/>
  <text x="568" y="520" class="t cv" fill="#ffffff" text-anchor="middle">0.843</text>
  <rect x="596" y="498" width="56" height="36" fill="#6b99bb" stroke="#ffffff"/>
  <text x="624" y="520" class="t cv" fill="#ffffff" text-anchor="middle">0.843</text>
  <rect x="652" y="498" width="56" height="36" fill="#6b99bb" stroke="#ffffff"/>
  <text x="680" y="520" class="t cv" fill="#ffffff" text-anchor="middle">0.843</text>
  <rect x="708" y="498" width="56" height="36" fill="#6b99bb" stroke="#ffffff"/>
  <text x="736" y="520" class="t cv" fill="#ffffff" text-anchor="middle">0.843</text>
  <rect x="709.5" y="499.5" width="53" height="33" fill="none" stroke="#5c6675" stroke-width="1.6" stroke-dasharray="3 2"/>
  <rect x="764" y="498" width="56" height="36" fill="#6b98bb" stroke="#ffffff"/>
  <text x="792" y="520" class="t cv" fill="#ffffff" text-anchor="middle">0.843</text>
  <text x="532" y="556" class="t ax" text-anchor="end">0.6</text>
  <rect x="540" y="534" width="56" height="36" fill="#f7f9fb" stroke="#ffffff"/>
  <text x="568" y="556" class="t cv" fill="#17202e" text-anchor="middle">0.826</text>
  <rect x="596" y="534" width="56" height="36" fill="#f7f9fb" stroke="#ffffff"/>
  <text x="624" y="556" class="t cv" fill="#17202e" text-anchor="middle">0.826</text>
  <rect x="652" y="534" width="56" height="36" fill="#f7f9fb" stroke="#ffffff"/>
  <text x="680" y="556" class="t cv" fill="#17202e" text-anchor="middle">0.826</text>
  <rect x="708" y="534" width="56" height="36" fill="#f7f9fb" stroke="#ffffff"/>
  <text x="736" y="556" class="t cv" fill="#17202e" text-anchor="middle">0.826</text>
  <rect x="764" y="534" width="56" height="36" fill="#f6f8fb" stroke="#ffffff"/>
  <text x="792" y="556" class="t cv" fill="#17202e" text-anchor="middle">0.826</text>
  <text x="498" y="480" class="t axt" text-anchor="middle" transform="rotate(-90 498 480)">threshold</text>
  <text x="540" y="586" class="t axt">F1 범위 0.826〜0.850  ·  기준값 대비 +0.0072</text>
  <rect x="24" y="612" width="852" height="64" rx="6" fill="#f5f7fa" stroke="#ccd4de"/>
  <text x="40" y="630" class="t note"><tspan font-weight="700">threshold는 내부 최적점을 갖지만 NMS 반경은 그렇지 않다.</tspan> threshold는 네 조합 모두 0.3〜0.4에서 정점이고 양쪽으로 떨어진다.</text>
  <text x="40" y="645" class="t note">반면 NMS 반경은 <tspan class="m" font-size="10">gaussian-tip</tspan>에서 5〜30 px 전체가 사실상 동일하고, <tspan class="m" font-size="10">gradient-seg</tspan>에서는 30 px까지 <tspan font-weight="700">단조 증가</tspan>해 격자 경계에서 최댓값을 만난다.</text>
  <text x="40" y="660" class="t note">즉 이 축의 최적점은 격자에 포섭되지 않았다.</text>
</svg>
